<svg xmlns="http://www.w3.org/2000/svg" fill="none" viewBox="0 0 299 66"><defs><clipPath id="a"><path fill="#fff" d="M25.5 9.5h249v47h-249z"/></clipPath></defs><g clip-path="url(#a)" transform="matrix(1.167 0 0 1.167 -24.5 -5.5)"><mask id="b" width="250" height="46" x="25" y="10" maskUnits="userSpaceOnUse" style="mask-type:luminance"><path fill="#fff" d="M274.5 10h-249v46h249V10Z"/></mask><g fill-rule="evenodd" clip-rule="evenodd" mask="url(#b)"><path fill="#FFE300" d="M166.9 55.5c3.1 0 4.7-1.5 4.7-4.5V34.5l12-16.5c.7-.8 1-1.8 1-2.8a4.4 4.4 0 0 0-1.3-3.2 5 5 0 0 0-7.3.5l-9.1 13-9.2-13a4.6 4.6 0 0 0-4-1.8 4.4 4.4 0 0 0-3.2 1.3 4.3 4.3 0 0 0-1.3 3.2c0 1 .3 2 .8 2.8l12 16.5V51c0 3 1.7 4.5 4.9 4.5Zm31-12.5c-2-2.8-3-6.3-3-10 0-3.4 1-6.8 3-9.6a10.5 10.5 0 0 1 9.1-4.5c1.7-.1 3.5.3 5.1 1.1 4.5 2.4 6.8 6.8 6.8 13 .1 3.6-1 7-2.9 9.9a11.8 11.8 0 0 1-9 4.5 11.4 11.4 0 0 1-9-4.4Zm24.9 6.3a22.5 22.5 0 0 0 6-16.2 23 23 0 0 0-6-16 22.3 22.3 0 0 0-31.7-.3 22.6 22.6 0 0 0-6 16.3 23.1 23.1 0 0 0 5.8 16 22.3 22.3 0 0 0 31.9.2Zm17 1.4a20.6 20.6 0 0 0 27.4 0 16.8 16.8 0 0 0 5.6-13.1V15.5c0-3.2-1.6-4.8-4.7-4.8-3.2 0-4.8 1.6-4.8 4.8V37a10.4 10.4 0 0 1-2.7 7.2 10 10 0 0 1-14.2 0 10.1 10.1 0 0 1-2.7-7.2V15.5c0-3.2-1.6-4.8-4.7-4.8-3.2 0-4.8 1.6-4.8 4.8v22.1a17.5 17.5 0 0 0 5.7 13.1Z"/><path fill="#fff" d="M143.7 55.8a1.3 1.3 0 0 0 1-.5c.3-.3.4-.7.4-1.2a1.6 1.6 0 0 0-1-1.6l-2-.7v-6.3l2-.7c.3-.1.6-.3.8-.7.2-.3.2-.6.2-1s-.1-.8-.4-1a1.2 1.2 0 0 0-1-.5l-.7.1-11.3 4.5c-.5.2-1 .5-1.2 1a2.6 2.6 0 0 0 0 3c.3.4.7.7 1.2.9l11.3 4.6.7.1Zm-10.5-7.2 6-2.1v4.3l-6-2.1Zm11.5-9a2 2 0 0 0 0-2.6 1.6 1.6 0 0 0-1.2-.4h-7.7l8.6-7.3.5-.7.2-.7a1.8 1.8 0 0 0-.4-1.3 1.6 1.6 0 0 0-1.2-.4h-11.8c-1 0-1.6.5-1.6 1.7 0 1.1.6 1.7 1.6 1.7h7.9l-8.8 7.2a2 2 0 0 0-.5.7l-.2.8c0 1.1.6 1.7 1.6 1.7h11.8a1.5 1.5 0 0 0 1.2-.5Zm-.1-16.5c.3-.4.4-.8.4-1.3v-4a8.2 8.2 0 0 0-2-5.6 6.9 6.9 0 0 0-5.2-2.2 7.2 7.2 0 0 0-5.5 2.1 8.2 8.2 0 0 0-2 6v3.7c0 .5 0 1 .4 1.3a1.5 1.5 0 0 0 1.1.5h11.6a1.4 1.4 0 0 0 1.2-.5Zm-11.5-5a4.4 4.4 0 0 1 1.3-3.4c1-.8 2-1.2 3.3-1 1.1-.2 2.2.2 3.1 1a4 4 0 0 1 1.3 3.2v2.3h-9v-2Z"/><path fill="#FFBB04" d="M27 54.2c1 1 2.4 1.4 3.8 1.3h13.5c4 .3 7.9-1 11-3.5a12.6 12.6 0 0 0 4.3-10.2 10.3 10.3 0 0 0-2.8-7.2 12 12 0 0 0-7.2-3.7v-.1a9.8 9.8 0 0 0 6.1-9.3c0-1.7-.3-3.2-1-4.7-2.1-4.3-5.9-6.5-11.4-6.5H30.7c-1.4-.1-2.7.4-3.7 1.2a4.4 4.4 0 0 0-1.5 3.5v35.7a4.5 4.5 0 0 0 1.5 3.5Zm13.5-35.5c3.6 0 5.3 1.5 5.3 4.5a4.8 4.8 0 0 1-1.4 3.7c-1.1.9-2.5 1.4-3.9 1.3h-5.1v-9.5h5.1Zm1.8 17.9c4.7 0 7 1.7 7 5a5.2 5.2 0 0 1-1.7 4.1 6.7 6.7 0 0 1-4.5 1.5h-7.7V36.6h7Zm22.4 17.6c1 1 2.3 1.4 3.6 1.3h17c1.2 0 2.4-.4 3.3-1.2a4.1 4.1 0 0 0 1.3-3.2 4.2 4.2 0 0 0-1.2-3.1c-1-.9-2.2-1.3-3.4-1.2H73V37H84a5 5 0 0 0 3.4-1.2 4 4 0 0 0 1.4-3.2 4.2 4.2 0 0 0-1.3-3.2c-1-.8-2.2-1.3-3.5-1.2H73.1V19h11.6c1.2 0 2.4-.4 3.3-1.2a4 4 0 0 0 1.4-3.2 4.1 4.1 0 0 0-1.4-3.1c-.9-.8-2-1.3-3.3-1.2H68.4c-3.4 0-5.1 1.8-5.1 5.5v35a4.5 4.5 0 0 0 1.4 3.4Zm41.9.4a5.5 5.5 0 0 0 7.2 0A4.8 4.8 0 0 0 115 51V19h7.2c1.2.1 2.4-.3 3.3-1.1a4.2 4.2 0 0 0 1.2-3.2 4.2 4.2 0 0 0-2.8-4.1c-.5-.3-1.1-.4-1.7-.3H98a4.3 4.3 0 0 0-3.2 1.2 4.2 4.2 0 0 0-1.3 3.1 4.3 4.3 0 0 0 1.2 3.2c1 .9 2 1.3 3.3 1.2h7.2v32a5 5 0 0 0 1.3 3.6Z"/></g></g></svg>